<?xml version="1.0" encoding="UTF-8"?>
<svg width="64px" height="64px" viewBox="0 0 64 64" version="1.1" xmlns="http://www.w3.org/2000/svg" xmlns:xlink="http://www.w3.org/1999/xlink">
    <!-- Generator: Sketch 62 (91390) - https://sketch.com -->
    <title>assets/guy-fawkes.png</title>
    <desc>Created with Sketch.</desc>
    <g id="assets/guy-fawkes.png" stroke="none" stroke-width="1" fill="none" fill-rule="evenodd">
        <path d="M32.0002471,0 C40.2845033,0 45.9124357,0.988430769 52.5481181,3.59175385 C55.2114839,4.67064615 57.2031399,7.14609231 57.4261372,10.0350769 C57.8041824,17.136 57.9951818,24.2312615 58,31.3422769 C57.9556476,38.5970462 54.7091532,45.5851077 50.0671035,51.0585846 C47.7464493,53.8057846 45.0052506,56.2211692 41.886748,58.0340923 C39.538914,59.4057846 36.942015,60.3609846 34.2491221,60.7230769 C33.5739531,62.0595692 32.747813,63.0153846 32.0002471,63.0153846 C31.252187,63.0153846 30.4260469,62.0595692 29.7508779,60.7230769 C27.057985,60.3609846 24.461086,59.4057846 22.113252,58.0340923 C18.9947494,56.2211692 16.2536743,53.8057846 13.9328965,51.0585846 C9.2908468,45.5851077 6.04435237,38.5971692 6,31.3422769 C6.00481822,24.2312615 6.1959411,17.136 6.57336862,10.0350769 C6.79673653,7.14609231 8.78839255,4.67076923 11.4523761,3.59175385 C18.0875643,0.988430769 23.7156203,0 32.0002471,0 Z M32.0002471,3.77735385 C25.2121111,4.03310769 18.7145511,4.61292308 12.3591905,7.00135385 C11.1840381,7.44381538 10.3399841,8.56393846 10.2815477,9.76393846 C9.95922091,16.9620923 9.79552485,24.1548308 9.79169498,31.3596308 C9.84827822,41.6736 17.7569601,54.2683077 28.4697245,56.6928 C28.4599646,56.6072615 28.458482,56.5331692 28.4508223,56.4499692 C28.3808963,55.8835692 28.349516,55.3340308 28.388556,54.8379077 C28.560406,52.6532923 29.9363177,51.0225231 30.1297879,50.2518154 C30.3232581,49.4806154 29.0766972,48.3244308 29.0766972,48.3244308 L29.0766972,48.3244308 L34.923797,48.3244308 L34.923797,48.3244308 L34.9031651,48.3441231 L34.923797,48.3441231 C34.9131722,48.3465846 34.8678315,48.3844923 34.8103834,48.4364308 C34.5149892,48.736 33.7114578,49.6185846 33.8702121,50.2518154 C34.0638058,51.0225231 35.4392234,52.6532923 35.611444,54.8379077 C35.6559199,55.4043077 35.621204,56.0340923 35.5255808,56.6860308 C36.5414847,56.4576 37.5288499,56.1404308 38.4849585,55.7442462 C47.6662691,51.9101538 54.1572813,40.6994462 54.2084286,31.3596308 C54.2045987,24.1548308 54.0413968,16.9620923 53.7185758,9.76393846 C53.6601394,8.56393846 52.8160855,7.44369231 51.640933,7.00135385 C45.2855724,4.61304615 40.3540587,3.77735385 32.0002471,3.77735385 Z M37.1002751,45.2980923 C37.548617,45.2980923 37.6654898,45.9217231 37.2461808,46.0787692 C35.4878998,46.736 33.6811894,46.8567385 32.0002471,46.8567385 C30.3169574,46.8567385 28.5096293,46.736 26.7525837,46.0787692 C26.3331512,45.9216 26.4503946,45.2980923 26.8982423,45.2980923 L26.8982423,45.2980923 Z M52.4496534,25.5959385 C52.5292158,25.5915077 52.6027246,25.6285538 52.6480653,25.6872615 C52.6480653,25.6872615 52.6658557,25.7112615 52.7016835,25.7574154 C52.737882,25.8072615 52.7740804,25.8654769 52.8174444,25.9486769 C52.9014545,26.1102769 53.0052316,26.3395692 53.0954189,26.6376615 C53.1905479,26.9353846 53.2841944,27.2992 53.3551088,27.7228308 C53.4240465,28.1468308 53.4751938,28.6295385 53.4858186,29.1612308 C53.5032383,30.2214154 53.3763584,31.4953846 52.8445006,32.8121846 C52.5819692,33.4689231 52.1997235,34.1271385 51.6939335,34.7256615 C51.5703893,34.8780308 51.4275722,35.0135385 51.2875966,35.1582769 L51.2875966,35.1582769 L51.0448323,35.3776 L50.9217823,35.4852923 L50.8238117,35.5617231 L50.6283648,35.7140923 L50.6162575,35.7236923 L50.5742524,35.7544615 L50.5656043,35.7601231 L50.5313826,35.7817846 L50.4618272,35.8259692 L50.32284,35.9129846 C50.1395004,36.0355692 49.9420768,36.1216 49.7481124,36.2158769 C49.7389701,36.2201846 49.7297043,36.2236308 49.720562,36.2269538 L49.720562,36.2269538 L46.7849048,40.8306462 L44.9269236,43.7805538 L34.5217842,44.1497846 L32.0032121,40.8536615 L31.4829675,41.5262769 L29.4783394,44.1497846 L19.0731999,43.7805538 L14.3288556,36.2475077 L14.3288556,36.2475077 L14.2520112,36.2157538 C14.0580468,36.1214769 13.8606231,36.0354462 13.6772835,35.9128615 L13.6772835,35.9128615 L13.5382963,35.8258462 L13.4687409,35.7816615 L13.4345192,35.76 L13.4258711,35.7543385 L13.3838661,35.7235692 L13.3717587,35.7139692 L13.1763118,35.5616 L13.0788355,35.4851692 L12.9552913,35.3774769 L12.7125269,35.1581538 C12.5725513,35.0134154 12.4297342,34.8779077 12.3056959,34.7255385 C11.8004001,34.1270154 11.4181543,33.4688 11.1556229,32.8120615 C10.6237652,31.4952615 10.4968853,30.2212923 10.514305,29.1611077 C10.5248062,28.6294154 10.5760771,28.1467077 10.6450148,27.7227077 C10.7160527,27.2990769 10.8095756,26.9351385 10.9047047,26.6375385 C10.9948919,26.3394462 11.098669,26.1101538 11.1826791,25.9485538 C11.2260431,25.8653538 11.2622416,25.8072615 11.2989342,25.7572923 C11.3342678,25.7111385 11.3520582,25.6871385 11.3520582,25.6871385 C11.4302617,25.5852308 11.576538,25.5650462 11.6788326,25.6424615 C11.7425814,25.6905846 11.7743323,25.7645538 11.7709966,25.8381538 L11.7709966,25.8381538 L11.76519,25.9443692 C11.76519,25.9443692 11.7618543,26.0064 11.7555535,26.1228308 C11.748388,26.2579692 11.7565419,26.4752 11.7716143,26.7511385 C11.7908872,27.0276923 11.8279504,27.3661538 11.8820628,27.7488 C11.9350633,28.1315692 12.0094369,28.5603692 12.1102489,29.0171077 C12.3115024,29.9286154 12.6169037,30.9671385 13.1226936,31.9142154 C13.3702762,32.3896615 13.6772835,32.8310154 14.0309906,33.2151385 C14.117348,33.3122462 14.2143302,33.4017231 14.3031585,33.4920615 L14.3031585,33.4920615 L14.42905,33.6017231 L14.4908221,33.6584615 L14.5892868,33.7330462 L14.77275,33.8710154 L14.7755915,33.8724923 L14.7935054,33.8835692 L14.8292096,33.9060923 L14.9006182,33.9512615 C14.9899407,34.0190769 15.1003892,34.0622769 15.2021896,34.1181538 C15.626811,34.3143385 16.1460673,34.4258462 16.6938622,34.4642462 C17.242522,34.5085538 17.8202147,34.4802462 18.3877767,34.4177231 C18.9563271,34.3556923 19.5151175,34.2556308 20.048952,34.1475692 C20.5816746,34.0360615 21.0893177,33.9124923 21.5594034,33.7908923 C22.0289949,33.6673231 22.4613996,33.5460923 22.8459927,33.4360615 C23.2292268,33.3232 23.5699617,33.2307692 23.8464536,33.1432615 C24.1259105,33.0595692 24.3454486,32.9937231 24.4950606,32.9490462 C24.5775881,32.9240615 24.6408428,32.9048615 24.6832184,32.8918154 C24.7348599,32.8749538 24.7464731,32.8754462 24.7488204,32.8734769 C24.8728588,32.8215385 25.0156759,32.8797538 25.0678115,33.0028308 C25.1204413,33.1264 25.0620049,33.2686769 24.9379666,33.3206154 C24.9409316,33.3196308 24.9143696,33.336 24.8950967,33.3571692 C24.8786653,33.3755077 24.8323363,33.4158769 24.7685875,33.4653538 C24.6422017,33.5618462 24.4602211,33.7124923 24.216592,33.8840615 C23.9724687,34.0546462 23.6770745,34.2685538 23.3213907,34.4859077 C22.9681779,34.7070769 22.5603585,34.9446154 22.1008976,35.1806769 C21.6420544,35.4182154 21.1323111,35.6576 20.5711733,35.8734769 C20.0118888,36.0928 19.4013333,36.2898462 18.7421015,36.4417231 C18.4245929,36.5153231 18.0939886,36.5750154 17.7527595,36.6182154 L17.7527595,36.6182154 L18.8762705,37.9048615 L20.9114141,40.2043077 L26.8096612,40.2043077 L29.1221615,36.6797538 L29.1221615,36.6797538 L29.0922638,36.6519385 C28.7013699,36.2870154 28.438715,36.0558769 28.1439385,35.9586462 C28.1496215,35.9933538 28.1617289,36.0264615 28.170377,36.0610462 C28.2220184,36.2076308 28.2832963,36.3591385 28.3455626,36.4740923 L28.3455626,36.4740923 L28.3281429,36.4832 L28.3253014,36.4846769 L26.7549311,37.3260308 C26.7525837,37.3207385 26.7487539,37.3134769 26.7457888,37.3081846 L26.7457888,37.3081846 L26.7391174,37.2947692 C26.4780685,36.8033231 25.9699312,35.6384 26.4853576,34.7913846 C26.6439884,34.5303385 27.0315465,34.1072 27.8524977,34.1053538 C29.0213494,34.1202462 29.7451948,34.7961846 30.3272116,35.3399385 C30.932331,35.9052308 31.3086467,36.2254769 32.0002471,36.2254769 C32.6913533,36.2254769 33.0677925,35.9053538 33.672912,35.3399385 C34.2549287,34.7963077 34.9787742,34.1202462 36.14812,34.1053538 C36.9661061,34.1024 37.3560116,34.5307077 37.5147659,34.7913846 C38.0404465,35.6544 37.5012996,36.8515692 37.2450689,37.3260308 L37.2450689,37.3260308 L36.4496914,36.9000615 L35.6533255,36.4759385 C35.7353588,36.3216 35.8115856,36.1316923 35.8637212,35.9654154 C35.8444484,35.9700923 35.8265344,35.9793231 35.8082499,35.9851077 C35.5321286,36.0914462 35.2768863,36.3072 34.9081069,36.6519385 L34.9081069,36.6519385 L34.9052654,36.6544 L36.3834717,38.9740308 L37.1903388,40.2043077 L43.0885859,40.2043077 L46.2525529,36.6289231 C46.1390157,36.6054154 46.0395627,36.5842462 45.9305967,36.5620923 C45.7037695,36.5255385 45.4739773,36.4918154 45.257775,36.4418462 C44.5985431,36.2898462 43.9879877,36.0929231 43.4287031,35.8736 C42.8674418,35.6577231 42.357822,35.4183385 41.8989789,35.1808 C41.439518,34.9446154 41.0316986,34.7072 40.6779916,34.4860308 C40.322802,34.2688 40.0275313,34.0547692 39.7832845,33.8841846 C39.5396553,33.7126154 39.3576747,33.5620923 39.2311654,33.4654769 C39.1675402,33.416 39.1212111,33.3756308 39.1047797,33.3572923 C39.0855068,33.3361231 39.0589448,33.3197538 39.0619099,33.3207385 C38.9378715,33.2688 38.8799293,33.1265231 38.9320649,33.0029538 C38.9840771,32.8798769 39.1270177,32.8216615 39.2505619,32.8736 C39.2534034,32.8755692 39.2650166,32.8750769 39.316658,32.8919385 C39.3590337,32.9049846 39.4222883,32.9241846 39.5048158,32.9491692 C39.6545514,32.9939692 39.8739659,33.0598154 40.1539171,33.1433846 C40.4299148,33.2308923 40.7706497,33.3232 41.1538838,33.4361846 C41.5384769,33.5462154 41.9713758,33.6674462 42.4404731,33.7910154 C42.9104352,33.9126154 43.4182019,34.0361846 43.9509244,34.1476923 C44.4847589,34.2557538 45.0435493,34.3558154 45.6120997,34.4178462 C46.1795382,34.4803692 46.7572309,34.5086769 47.3060142,34.4643692 C47.8538092,34.4259692 48.3730655,34.3144615 48.798181,34.1182769 C48.8996108,34.0624 49.0101829,34.0192 49.0993818,33.9513846 L49.0993818,33.9513846 L49.1707904,33.9062154 L49.2064946,33.8836923 L49.2244085,33.8726154 L49.22725,33.8711385 L49.410219,33.7331692 L49.5096721,33.6585846 L49.5714442,33.6018462 L49.6968415,33.4921846 C49.7856698,33.4017231 49.882652,33.3123692 49.9690094,33.2152615 C50.3232106,32.8312615 50.6297238,32.3897846 50.8773064,31.9143385 C51.3829728,30.9672615 51.6884976,29.9287385 51.8897511,29.0172308 C51.9905631,28.5604923 52.0653074,28.1316923 52.1179372,27.7489231 C52.171926,27.3662769 52.2091128,27.0276923 52.2283857,26.7512615 C52.2434581,26.4753231 52.251612,26.2580923 52.2439523,26.1229538 C52.2381457,26.0065231 52.23481,25.9444923 52.23481,25.9444923 L52.23481,25.9444923 L52.2294976,25.8397538 C52.2228262,25.7118769 52.3212909,25.6025846 52.4496534,25.5959385 Z M28.3884325,20.8668308 L29.199253,21.112 L31.0132525,21.6408615 C31.0132525,25.8173538 30.9805133,25.8163692 30.838561,33.6519385 L30.838561,33.6519385 L28.3691596,20.8702769 L28.3904092,20.8764308 L28.3884325,20.8668308 Z M43.0702641,20.6730729 L43.3933695,20.6775385 C47.7637455,20.7991385 48.5156355,22.4265846 48.6217599,22.7515077 L48.6217599,22.7515077 L48.7984281,23.2909538 L48.3336549,23.6188308 C46.8888055,24.6403692 45.1268181,25.1447385 42.881773,25.1447385 C41.3303049,25.1447385 39.5480563,24.9043692 37.4791852,24.4269538 L37.4791852,24.4269538 L36.410775,24.1804308 L36.4218939,24.1625846 L36.415099,24.1612308 L36.5670584,23.9371077 L37.0019339,23.2601846 C37.0728483,23.1491692 38.8019729,20.5511385 43.3933695,20.6775385 Z M20.6067541,20.6774154 C25.1951856,20.5538462 26.9267811,23.1490462 26.9981896,23.2600615 L26.9981896,23.2600615 L27.5894721,24.1801846 L27.5690873,24.1844923 L27.5729172,24.1906462 L27.3098916,24.2445538 L26.5209384,24.4268308 C24.4525614,24.9037538 22.6698186,25.1446154 21.1183506,25.1446154 C18.8728112,25.1446154 17.1113181,24.6403692 15.6664687,23.6187077 L15.6664687,23.6187077 L15.2021896,23.2908308 L15.3783636,22.7513846 C15.4844881,22.4264615 16.2363781,20.7990154 20.6067541,20.6774154 Z M51.8676366,19.4114462 L51.9334926,19.4178855 C52.0184792,19.4348603 52.0910046,19.4846031 52.136963,19.5576615 C52.136963,19.5581538 52.1788445,19.6253538 52.2440758,19.7504 L52.2440758,19.7504 L52.2610014,19.7831385 C52.2890459,19.8375385 52.3212909,19.9009231 52.3541537,19.9737846 C52.3981354,20.0508308 52.4246974,20.1537231 52.4502711,20.2531692 L52.4502711,20.2531692 L52.4628726,20.3021538 C52.4710265,20.3372308 52.4783156,20.3656615 52.4859754,20.3939692 C52.5106842,20.4857846 52.5414467,20.6002462 52.5376168,20.7304615 L52.5376168,20.7304615 L52.5472533,20.9256615 L52.550589,21.0516923 L52.54923,21.0647385 C52.5462649,21.0935385 52.5419409,21.1223385 52.5376168,21.1511385 L52.5376168,21.1511385 L52.5193323,21.2651077 C52.4975885,21.3986462 52.4733738,21.5506462 52.4044362,21.6987077 L52.4044362,21.6987077 L52.3831866,21.7554462 C52.3609486,21.8140308 52.3377223,21.8727385 52.3102955,21.9284923 L52.3102955,21.9284923 L52.1741498,22.1534769 L52.096317,22.2727385 L52.0090948,22.3746462 C51.9549824,22.4376615 51.8990169,22.4992 51.8435455,22.5587692 L51.8435455,22.5587692 L51.8240294,22.5771327 C51.8039342,22.5942615 51.7610798,22.6308615 51.7397684,22.6496 C51.6474809,22.7303385 51.5519812,22.8135385 51.4410385,22.8784 L51.4410385,22.8784 L51.3913738,22.9111385 C51.3465272,22.9409231 51.3020513,22.9698462 51.2567106,22.9953231 L51.2567106,22.9953231 L51.1916028,23.0275692 L51.1882671,23.0323692 L51.2037101,23.04 C51.2370671,23.0587077 51.260664,23.0736 51.2848787,23.0894769 L51.2848787,23.0894769 L51.3127997,23.1073231 C51.3707419,23.1419077 51.4243601,23.1885538 51.4720481,23.2299077 L51.4720481,23.2299077 L51.5222071,23.2736 L51.5308552,23.2822154 C51.5597645,23.3134769 51.5887974,23.3457231 51.6172126,23.3784615 L51.6172126,23.3784615 L51.6644064,23.4342154 L51.7054231,23.4962462 L51.7725076,23.6057846 C51.7965987,23.6529231 51.8090767,23.6850462 51.821184,23.7168 L51.821184,23.7168 L51.8337855,23.7490462 C51.869984,23.8268308 51.8839445,23.9139692 51.8950635,23.9836308 C51.8950635,23.9836308 51.9091475,24.0734769 51.9110007,24.0888615 L51.9110007,24.0888615 L51.911989,24.1019077 L51.9058118,24.2788923 C51.9082827,24.3442462 51.8899981,24.4120615 51.8764083,24.4620308 L51.8764083,24.4620308 L51.8589886,24.5313231 C51.8450281,24.5846154 51.829585,24.6451692 51.7972165,24.7033846 C51.7880742,24.7244308 51.7716428,24.7571692 51.7571881,24.7851077 L51.7571881,24.7851077 L51.7475517,24.8038154 C51.7128358,24.8706462 51.6901036,24.9072 51.6901036,24.9072 C51.6417979,24.9836308 51.5597645,25.0288 51.4700714,25.0288 L51.4700714,25.0288 C51.3228067,25.0259692 51.2090225,24.9081846 51.2113699,24.7667692 C51.2113699,24.76 51.211864,24.7186462 51.2176706,24.6499692 C51.221624,24.6008615 51.2244656,24.5681231 51.2287896,24.5320615 C51.2326195,24.5084308 51.2312605,24.4950154 51.2307663,24.4816 C51.229778,24.4609231 51.229778,24.4392615 51.2302721,24.4176 C51.2299427,24.416 51.229723,24.4124308 51.2295949,24.4075259 L51.229778,24.3671385 C51.2302721,24.3460923 51.2307663,24.3239385 51.2282954,24.3133538 L51.2282954,24.3133538 L51.2105051,24.1873231 C51.2105051,24.1873231 51.1930853,24.1300923 51.1872787,24.1099077 C51.1801132,24.0830769 51.1733183,24.0580923 51.1656585,24.0445538 L51.1656585,24.0445538 L51.1274834,23.9623385 L51.069047,23.8705231 L51.0001093,23.7858462 C50.9823189,23.7689846 50.9653934,23.7521231 50.948962,23.7348923 C50.9315423,23.7171692 50.9151109,23.6988308 50.895838,23.6839385 L50.895838,23.6839385 L50.8176345,23.6176 L50.7596923,23.5744 C50.735107,23.5555692 50.7133632,23.5412923 50.6926078,23.5277538 C50.6743232,23.5152 50.6559152,23.5027692 50.638619,23.4902154 C50.6173694,23.4776615 50.5971081,23.4647385 50.5777117,23.4521846 C50.5617745,23.4427077 50.5474433,23.4329846 50.5328651,23.4243692 L50.5328651,23.4243692 L50.4348946,23.3671385 L50.3986961,23.3469538 C50.360521,23.3426462 50.3238283,23.3398154 50.294919,23.3388308 C50.2351236,23.3502769 50.1743399,23.3619692 50.1236867,23.3671385 C50.0773577,23.3744 50.0276929,23.3778462 49.9890236,23.3796923 L49.9890236,23.3796923 L49.9634499,23.3811692 C49.9397294,23.3825231 49.92441,23.3830154 49.9127968,23.3830154 L49.9127968,23.3830154 L49.8784515,23.3816615 C49.7919706,23.3758769 49.716238,23.3378462 49.6612608,23.2744615 C49.6061601,23.2114462 49.5797216,23.1307077 49.5854047,23.0475077 C49.5936821,22.9436308 49.6521185,22.8509538 49.7423058,22.7995077 L49.7423058,22.7995077 L49.9097082,22.7042462 L50.0950245,22.5955692 C50.1303581,22.5758769 50.1630973,22.5547077 50.1974426,22.5326769 C50.2369768,22.5072 50.2784876,22.4801231 50.3223458,22.4552615 C50.3580501,22.4286769 50.3961017,22.4032 50.434771,22.3777231 C50.4802353,22.3474462 50.5270586,22.3166769 50.5723993,22.2811077 L50.5723993,22.2811077 L50.7132397,22.1748923 L50.8367839,22.0681846 C50.8913904,22.0263385 50.9338896,21.9826462 50.9787361,21.936 C51.0124637,21.9009231 51.0466855,21.8658462 51.0833781,21.8321231 L51.0833781,21.8321231 L51.1871552,21.7038769 L51.2383025,21.6432 L51.2768483,21.5803077 L51.3680239,21.4384 L51.4341201,21.2928 C51.4706891,21.2263385 51.4881089,21.1633231 51.506517,21.0966154 C51.5166476,21.0600615 51.5267782,21.024 51.5383914,20.9884308 C51.5383914,20.9884308 51.5533402,20.9412923 51.5558111,20.9321846 L51.5558111,20.9321846 L51.563965,20.8638769 L51.587562,20.6966154 C51.6001635,20.6360615 51.5991751,20.5822769 51.5981868,20.5255385 C51.5973219,20.4846769 51.5968278,20.4443077 51.5986809,20.4052923 C51.5978161,20.3836308 51.5986809,20.3447385 51.5996693,20.3072 C51.6011518,20.2596923 51.6025108,20.2139077 51.5968278,20.1851077 C51.5857088,20.1043692 51.5808906,20.0413538 51.5760723,19.9864615 L51.5760723,19.9864615 L51.5732308,19.9489231 C51.562606,19.8187077 51.5616177,19.7408 51.5616177,19.7408 C51.5587762,19.5556923 51.6964044,19.4144 51.8676366,19.4114462 L51.8676366,19.4114462 Z M12.127051,19.4109538 C12.3037192,19.4139077 12.4412238,19.5552 12.4383823,19.7259077 C12.4383823,19.7403077 12.437394,19.8182154 12.4272634,19.9470769 L12.4272634,19.9470769 L12.4234335,19.9889231 C12.4191094,20.0432 12.413797,20.1047385 12.4051489,20.1720615 C12.3974892,20.2134154 12.3988482,20.2587077 12.4003307,20.3067077 C12.4013191,20.3442462 12.4021839,20.3827692 12.4013191,20.4221538 C12.4031722,20.4438154 12.4026781,20.4841846 12.4018132,20.5245538 C12.4008249,20.5817846 12.3998365,20.6356923 12.409473,20.6808615 L12.409473,20.6808615 L12.4354173,20.8588308 L12.4440654,20.9324308 C12.4469069,20.9410462 12.4634618,20.9939692 12.4634618,20.9939692 C12.4735924,21.0237538 12.4832289,21.0598154 12.4933595,21.0963692 C12.5117676,21.1632 12.5291873,21.2262154 12.5571083,21.2756923 L12.5571083,21.2756923 L12.6319761,21.4381538 L12.7201866,21.5752615 L12.7616975,21.6425846 L12.8098797,21.6998154 L12.9164984,21.832 C12.9533145,21.8657231 12.9874127,21.9008 13.0212639,21.9358769 C13.0661104,21.9825231 13.1086096,22.0262154 13.1519736,22.0594462 L13.1519736,22.0594462 L13.2972616,22.1835077 L13.4241415,22.2782769 C13.4729414,22.3161846 13.5197647,22.3475692 13.5646112,22.3773538 C13.6036512,22.4033231 13.6412086,22.4288 13.6775306,22.4552615 C13.7213888,22.4807385 13.7628997,22.5072 13.802928,22.5326769 C13.8372733,22.5547077 13.8695183,22.5763692 13.9013927,22.5942154 L13.9013927,22.5942154 L14.0930098,22.7057231 L14.2565823,22.7985231 C14.3483756,22.8513231 14.406812,22.9446154 14.4144718,23.0475077 C14.420649,23.1302154 14.3937164,23.2109538 14.3391098,23.2744615 C14.2841326,23.3378462 14.2079059,23.3758769 14.1238958,23.3816615 C14.1220427,23.3816615 14.1104295,23.3830154 14.0872032,23.3830154 C14.07559,23.3830154 14.0109764,23.3796923 14.0109764,23.3796923 C13.9723071,23.3777231 13.9226423,23.3742769 13.867171,23.3661538 C13.8024338,23.3595077 13.7228714,23.3464615 13.6355256,23.3272615 L13.6355256,23.3272615 L13.4709647,23.4225231 C13.4531744,23.4331077 13.4382255,23.4427077 13.4222883,23.4523077 C13.4028919,23.4648615 13.3826306,23.4777846 13.361381,23.4903385 C13.3440848,23.5028923 13.3256768,23.5153231 13.3073922,23.5278769 C13.2861426,23.5417846 13.264893,23.5556923 13.2436434,23.5720615 L13.2436434,23.5720615 L13.1712465,23.6264615 L13.1146633,23.6759385 C13.0848891,23.6989538 13.0684577,23.7172923 13.0515322,23.7351385 C13.0347302,23.7523692 13.0178046,23.7692308 12.9998907,23.7860923 L12.9998907,23.7860923 L12.930953,23.8707692 L12.8730108,23.9620923 L12.8426189,24.0284308 C12.8266817,24.0582154 12.8198868,24.0833231 12.8127213,24.1101538 C12.8069147,24.1303385 12.8014787,24.1505231 12.7948073,24.1698462 L12.7948073,24.1698462 L12.7866534,24.2120615 L12.7745461,24.2976 C12.7692337,24.3240615 12.7697279,24.3462154 12.770222,24.3672615 L12.7705309,24.4014769 L12.7705309,24.4014769 L12.7697279,24.4345846 C12.7707162,24.4393846 12.770222,24.4610462 12.7692337,24.4817231 C12.7687395,24.4951385 12.7678747,24.5085538 12.7692337,24.5206154 C12.7761522,24.5691077 12.7784995,24.6033231 12.7808468,24.6326154 C12.788136,24.7181538 12.7886301,24.7595077 12.7886301,24.7595077 C12.7904833,24.9085538 12.6766991,25.0258462 12.535241,25.0286769 L12.535241,25.0286769 C12.4406061,25.0286769 12.3585728,24.9835077 12.3103905,24.9080615 C12.3098964,24.9070769 12.2871642,24.8705231 12.2524483,24.8036923 L12.2524483,24.8036923 L12.2428119,24.7849846 C12.2284807,24.7570462 12.2120494,24.7243077 12.1951238,24.6864 C12.170415,24.6455385 12.1549719,24.5844923 12.1410114,24.5305846 L12.1410114,24.5305846 L12.1235917,24.4617846 C12.1101254,24.4118154 12.0918409,24.344 12.0941882,24.2637538 L12.0941882,24.2637538 L12.0898641,24.1739077 L12.0875168,24.1017846 L12.09913,24.0195692 L12.1049365,23.9830154 C12.115932,23.9133538 12.1298925,23.8262154 12.1705385,23.7393231 L12.1705385,23.7393231 L12.1781983,23.7176615 C12.1907998,23.6854154 12.2032777,23.6531692 12.2182266,23.6224 L12.2182266,23.6224 L12.2911176,23.5012923 L12.3355936,23.4339692 L12.3832816,23.3782154 C12.4107084,23.3453538 12.4402355,23.3132308 12.4691448,23.2819692 L12.4691448,23.2819692 L12.4772988,23.2733538 L12.5284461,23.2296615 C12.5756399,23.1883077 12.6292581,23.1416615 12.6930069,23.1041231 L12.6930069,23.1041231 L12.7151213,23.0892308 C12.7378535,23.0743385 12.7599679,23.0604308 12.7827,23.0473846 C12.7581147,23.0180923 12.7392125,22.9984 12.7209279,22.9801846 C12.6813938,22.9570462 12.6438363,22.9340308 12.6085027,22.9108923 L12.6085027,22.9108923 L12.5525372,22.8748308 C12.4477717,22.8132923 12.3517778,22.7297231 12.2596139,22.6488615 C12.2315693,22.6243692 12.164979,22.5676308 12.164979,22.5676308 L12.164979,22.5676308 L12.1568251,22.5585231 C12.1008596,22.4989538 12.0448941,22.4374154 11.9907817,22.3744 L11.9907817,22.3744 L11.9039301,22.2724923 L11.8295565,22.1590154 L11.6983526,21.9446154 C11.66166,21.8726154 11.6390514,21.8134154 11.6168134,21.7547077 L11.6168134,21.7547077 L11.5912398,21.6883692 C11.5266262,21.5504 11.502535,21.3985231 11.4812854,21.2648615 L11.4812854,21.2648615 L11.4628773,21.1508923 C11.4581827,21.1217231 11.4538586,21.0932923 11.4508936,21.0638769 L11.4508936,21.0638769 L11.4495346,21.0508308 L11.4547234,20.8849231 L11.4625067,20.7143385 C11.4585533,20.5988923 11.4895629,20.4844308 11.5141482,20.3926154 C11.5218079,20.3643077 11.5295912,20.3363692 11.5353978,20.3094154 L11.5353978,20.3094154 L11.5498525,20.2531692 C11.5754261,20.1532308 11.6014939,20.0498462 11.6536296,19.9570462 C11.6792032,19.8988308 11.712066,19.8344615 11.7404812,19.7796923 L11.7404812,19.7796923 L11.75543,19.7508923 C11.821032,19.6248615 11.863037,19.5576615 11.863037,19.5576615 C11.9204851,19.4658462 12.019444,19.4109538 12.127051,19.4109538 Z M44.8815829,12.6808615 L44.9071565,12.6818462 C44.9968496,12.6856615 45.0862956,12.688 45.1750004,12.6899692 C45.3868787,12.6952615 45.6064167,12.7000615 45.833738,12.7288615 C46.1073884,12.7582769 46.4287269,12.7928615 46.7501889,12.8683077 C46.7878699,12.8764308 46.8312339,12.8851692 46.8745979,12.8937846 C46.9843051,12.9149538 47.0924063,12.9366154 47.199025,12.9688615 L47.199025,12.9688615 L47.8441728,13.1650462 L48.4137115,13.3968 C48.6061934,13.4780308 48.7727309,13.5684923 48.9338326,13.6558769 C49.0047469,13.6942769 49.0747965,13.7328 49.1447225,13.7683692 L49.1447225,13.7683692 L49.1679488,13.7809231 C49.3300388,13.8742154 49.475821,13.9726769 49.6162907,14.0684308 C49.6789276,14.1107692 49.7406997,14.1524923 49.8024718,14.1929846 C49.9603613,14.2992 50.0920594,14.4102154 50.2084381,14.5083077 C50.2625504,14.5529846 50.3150567,14.5976615 50.3681807,14.6395077 C50.5270586,14.7606154 50.6615982,14.8966154 50.7803242,15.0163692 L50.8600102,15.0961231 C50.9141225,15.1528615 50.9574865,15.1952 51.0004799,15.2370462 C51.0959796,15.3308308 51.1945679,15.4274462 51.2842609,15.5432615 C51.3508513,15.6259692 51.4217656,15.7101538 51.4893443,15.7904 C51.62549,15.9524923 51.7538524,16.1047385 51.8580002,16.2605538 L51.8580002,16.2605538 L52.2860808,16.8822154 C52.5331692,17.2409846 52.4414994,17.7332923 52.0809975,17.9803077 C51.7547173,18.2024615 51.3233009,18.1559385 51.0536039,17.8688 L51.0536039,17.8688 L50.5438606,17.3289846 C50.4603447,17.2370462 50.3502668,17.1409231 50.2228927,17.0299077 C50.1408594,16.9582769 50.0543785,16.8833231 49.9666621,16.8020923 C49.9136616,16.7516308 49.8450946,16.7025231 49.7722035,16.6505846 C49.7167322,16.6112 49.6602725,16.5708308 49.6048011,16.528 L49.6048011,16.528 L49.5226442,16.4674462 C49.4208438,16.3915077 49.32485,16.3203692 49.2263852,16.2674462 C49.1525058,16.2265846 49.0869038,16.1867077 49.0208077,16.1457231 C48.9243197,16.0871385 48.8330205,16.0312615 48.7428332,15.9890462 C48.6790844,15.9609846 48.6071817,15.9270154 48.5347848,15.8923077 C48.4329844,15.8436923 48.3297015,15.7942154 48.2216003,15.7518769 C48.1458677,15.7273846 48.0706293,15.7004308 47.9952673,15.6731077 C47.8760472,15.6302769 47.7636219,15.5899077 47.6545324,15.5630769 L47.6545324,15.5630769 L47.1942067,15.4534154 L46.708678,15.3862154 C46.6517242,15.3776 46.596747,15.3771077 46.5426346,15.3751385 C46.4939582,15.3737846 46.4451583,15.3718154 46.3973467,15.3684923 C46.2014056,15.3521231 45.9982989,15.3607385 45.7820965,15.3708308 L45.7820965,15.3708308 L45.7502221,15.3723077 C45.6127174,15.3751385 45.4760776,15.3934769 45.3317779,15.4121846 C45.2520919,15.4227692 45.1725295,15.4328615 45.0933376,15.4414769 C45.008957,15.4592 44.9249469,15.4745846 44.8409368,15.4899692 C44.7004671,15.5154462 44.5682748,15.5394462 44.445719,15.576 L44.445719,15.576 L44.0910236,15.6697846 L43.7557246,15.7783385 C43.6031475,15.824 43.4588479,15.8812308 43.3063944,15.9417846 C43.2349858,15.9696 43.1645656,15.9980308 43.0936513,16.0244923 C42.6375261,16.2193231 42.2331659,16.4153846 41.8759996,16.6168615 C41.4816466,16.8292923 41.1197856,17.0619077 40.7519945,17.3024 C40.3654247,17.5667692 40.0613825,17.7874462 39.8036693,17.9894154 C39.1937316,18.4620308 38.7390889,18.8721231 38.4645737,19.1331692 C38.3144675,19.2755692 38.2010539,19.3884308 38.1296454,19.4625231 L38.1296454,19.4625231 L38.027845,19.5702154 C37.6118716,20.0114462 37.0486336,20.2345846 36.4845308,20.2345846 C35.9647804,20.2345846 35.4445358,20.0456615 35.0365928,19.6647385 C34.6249436,19.2791385 34.3881093,18.7569231 34.3706896,18.1939692 C34.3527757,17.6313846 34.5560059,17.0958769 34.9430699,16.6852923 C35.015961,16.6078769 35.095647,16.5352615 35.1790393,16.4699077 L35.1790393,16.4699077 L35.3734979,16.3198769 C35.4970421,16.2260923 35.6679037,16.1020308 35.8860827,15.9511385 C36.2716642,15.6838154 36.9019867,15.2699077 37.7136721,14.8199385 C38.0668849,14.6217846 38.483476,14.4083692 38.9843241,14.1688615 C39.4487268,13.9574154 39.9385795,13.7390769 40.479456,13.5463385 C40.9673321,13.3627077 41.5280992,13.1905231 42.1381604,13.0366769 L42.1381604,13.0366769 L42.3775891,12.9832615 C42.5914441,12.9341538 42.8119705,12.8841846 43.0469515,12.8500923 L43.0469515,12.8500923 L43.1776613,12.8284308 C43.2799559,12.8112 43.3818799,12.7943385 43.4851628,12.7799385 L43.4851628,12.7799385 L43.9430176,12.7314462 C44.1505719,12.7044923 44.3647975,12.6987077 44.5723518,12.6924308 C44.6673572,12.6899692 44.7624863,12.6871385 44.856627,12.6823385 L44.856627,12.6823385 L44.8815829,12.6808615 Z M19.1179229,12.6811077 L19.1438672,12.6825846 C19.2376373,12.6875077 19.3325192,12.6903385 19.4276482,12.6926769 C19.6352025,12.6989538 19.8494281,12.7047385 20.0685955,12.7330462 L20.0685955,12.7330462 L20.4985293,12.7782154 C20.6182437,12.7944615 20.7210324,12.8113231 20.823327,12.8286769 L20.823327,12.8286769 L20.9614495,12.8516923 C21.1882766,12.8843077 21.408803,12.9344 21.6225345,12.9828923 L21.6225345,12.9828923 L21.8446669,13.0323692 C22.4725185,13.1905231 23.0332857,13.3632 23.528945,13.5491692 C24.0616676,13.7390769 24.5712874,13.9665231 25.0066571,14.1645538 C25.5166476,14.4083692 25.9332386,14.6217846 26.2887988,14.8217846 C27.0992488,15.2708923 27.7289535,15.6843077 28.114535,15.9521231 C28.3322199,16.1021538 28.5025873,16.2262154 28.6223016,16.3165538 L28.6223016,16.3165538 L28.8099653,16.4612923 C29.7330875,17.1737846 29.9016018,18.5006769 29.1872692,19.4194462 C28.7709253,19.9544615 28.1450504,20.2348308 27.512257,20.2348308 C27.0595911,20.2348308 26.6035894,20.0910769 26.2188728,19.7939692 C26.1155899,19.7147077 26.0297266,19.6305231 25.9756143,19.5742769 L25.9756143,19.5742769 L25.8656599,19.4573538 C25.7990696,19.3885538 25.685656,19.2756923 25.5365382,19.1342769 C25.2615288,18.8722462 24.8068862,18.4626462 24.1988016,17.9915077 C23.9396059,17.7880615 23.6355636,17.5678769 23.2388632,17.2962462 C22.8802144,17.0620308 22.5183534,16.8294154 22.1331426,16.6216615 C21.7668341,16.4153846 21.3624739,16.2193231 20.8865817,16.0163692 C20.8359286,15.9980308 20.76452,15.9696 20.6936056,15.9417846 C20.5411521,15.8812308 20.3968525,15.824 20.2558885,15.7821538 L20.2558885,15.7821538 L19.9089764,15.6696615 L19.5697241,15.5801846 C19.4316017,15.5393231 19.2995329,15.5153231 19.1590632,15.4898462 C19.0750531,15.4745846 18.991043,15.4592 18.9066624,15.4413538 C18.8274705,15.4327385 18.7477845,15.4226462 18.6682221,15.4120615 C18.5239224,15.3933538 18.3872826,15.3750154 18.2632442,15.3726769 L18.2632442,15.3726769 L18.2179035,15.3707077 C18.0023188,15.3612308 17.7985944,15.352 17.6113014,15.3678769 C17.5548417,15.3716923 17.5060418,15.3736615 17.4578595,15.3750154 C17.4027588,15.3769846 17.3482758,15.3774769 17.2951518,15.3856 L17.2951518,15.3856 L16.8052991,15.4532923 L16.3425025,15.5633231 C16.2362545,15.5897846 16.1239528,15.6301538 16.0047327,15.6729846 C15.9288766,15.7003077 15.8541323,15.7272615 15.7783997,15.7517538 C15.6707927,15.7940923 15.5675098,15.8436923 15.4655858,15.8921846 C15.3931889,15.9264 15.320792,15.9609846 15.2488893,15.9927385 C15.1668559,16.0311385 15.0756803,16.0870154 14.9791923,16.1460923 C14.9124784,16.1865846 14.8468765,16.2264615 14.7812745,16.2630154 C14.6750265,16.3202462 14.5790326,16.3913846 14.4771087,16.4673231 L14.4771087,16.4673231 L14.3811148,16.5379692 C14.339604,16.5707077 14.2832678,16.6110769 14.2271788,16.6504615 C14.1547819,16.7024 14.0858442,16.7515077 14.0413683,16.7947077 C13.9453745,16.8832 13.8590171,16.9581538 13.7769837,17.0297846 C13.6494861,17.1408 13.5395318,17.2369231 13.4623166,17.3216 L13.4623166,17.3216 L12.9440487,17.8716308 C12.8011081,18.0230154 12.6046728,18.112 12.3929181,18.1182769 C12.1805456,18.1255385 11.9792921,18.0486154 11.8252325,17.9047385 C11.5379922,17.6354462 11.4912925,17.2056615 11.7146604,16.8820923 L11.7146604,16.8820923 L12.1466945,16.2546462 C12.2465182,16.1049846 12.3748806,15.9527385 12.5110263,15.7906462 C12.578605,15.7104 12.6495194,15.6262154 12.7224104,15.5358769 C12.8059263,15.4276923 12.904391,15.3310769 12.9998907,15.2372923 C13.0428841,15.1954462 13.0862481,15.1531077 13.1292415,15.1080615 L13.1292415,15.1080615 L13.2199229,15.0167385 C13.3385254,14.8969846 13.4731885,14.7608615 13.6387378,14.6349538 C13.6850668,14.5979077 13.7380673,14.5532308 13.7916855,14.5080615 C13.9079406,14.4104615 14.0402564,14.2994462 14.1907332,14.1979077 C14.2591767,14.1527385 14.3209488,14.1110154 14.3837093,14.0686769 C14.524179,13.9729231 14.669467,13.8744615 14.8320512,13.7811692 L14.8320512,13.7811692 L14.8547833,13.7686154 C14.9252035,13.7331692 14.9952531,13.6946462 15.0661674,13.6561231 C15.2272691,13.5686154 15.3938066,13.4782769 15.5809761,13.3988923 L15.5809761,13.3988923 L16.1968439,13.1512615 L16.8024576,12.9691077 C16.9077172,12.9368615 17.0158184,12.9152 17.1249079,12.8940308 C17.1682719,12.8854154 17.2121301,12.8768 17.2556177,12.8672 C17.5707789,12.7931077 17.8921174,12.7585231 18.1758984,12.7282462 C18.3935833,12.7003077 18.6131213,12.6955077 18.8249996,12.6902154 L18.8249996,12.6902154 L19.0928435,12.6820923 L19.1179229,12.6811077 Z" id="Combined-Shape" fill="#FFFFFF" fill-rule="nonzero"></path>
    </g>
</svg>